<svg width="100" height="100" viewBox="0 0 100 100" fill="none" xmlns="http://www.w3.org/2000/svg">
  <!-- Background circle -->
  <circle cx="50" cy="50" r="45" fill="#38A169" />
  
  <!-- Inner circle -->
  <circle cx="50" cy="50" r="37" fill="white" />
  
  <!-- Green decorative elements -->
  <path d="M23 27C30 15 42 10 55 10C68 10 82 17 89 31" stroke="#38A169" stroke-width="5" stroke-linecap="round" />
  <path d="M11 55C11 42 18 30 28 22" stroke="#38A169" stroke-width="5" stroke-linecap="round" />
  <path d="M45 89C32 89 20 82 13 72" stroke="#38A169" stroke-width="5" stroke-linecap="round" />
  <path d="M78 86C66 94 50 94 39 89" stroke="#38A169" stroke-width="5" stroke-linecap="round" />
  <path d="M89 65C94 53 94 40 89 28" stroke="#38A169" stroke-width="5" stroke-linecap="round" />
  
  <!-- Blue accent element -->
  <path d="M72 80C80 73 85 62 85 50C85 38 80 27 72 20" stroke="#3182CE" stroke-width="5" stroke-linecap="round" />
  
  <!-- Red accent for the MA part -->
  <path d="M55 70L65 50L75 70" stroke="#E53E3E" stroke-width="4" stroke-linecap="round" stroke-linejoin="round" />
</svg> 